<?xml version="1.0" encoding="UTF-8"?> <svg xmlns="http://www.w3.org/2000/svg" width="170" height="170" viewBox="0 0 170 170" fill="none"><rect width="170" height="170" rx="35" fill="#24B7D8"></rect><path fill-rule="evenodd" clip-rule="evenodd" d="M58 121C58 125.971 53.9704 130 49 130C44.0294 130 40 125.971 40 121V70.3916L40.0075 69.2878L40.0168 68.5798L40.0301 67.8929L40.0469 67.2271L40.0677 66.5819L40.092 65.9566L40.1355 65.0547L40.1692 64.4767L40.2065 63.9166L40.2475 63.3738L40.2922 62.8478L40.3404 62.3381L40.3924 61.8441L40.448 61.3653L40.5072 60.901L40.5701 60.4509C40.5808 60.377 40.5917 60.3037 40.6028 60.2308L40.671 59.8007L40.7428 59.3833L40.8182 58.9779C40.831 58.9112 40.844 58.8451 40.8571 58.7796L40.9379 58.3913C40.9516 58.3274 40.9655 58.2641 40.9795 58.2011L41.0655 57.8287C41.0801 57.7676 41.0948 57.7066 41.1098 57.6463L41.2011 57.2885L41.2959 56.9397L41.3942 56.5995C41.4109 56.5434 41.4276 56.4877 41.4446 56.4324L41.5481 56.1038L41.7099 55.6241L41.822 55.3123L41.9377 55.0062L42.0568 54.7052L42.1792 54.4089L42.305 54.1167L42.4343 53.8278L42.5669 53.5422L42.7723 53.1176L42.9134 52.8367L43.1313 52.4171C43.1559 52.3706 43.1807 52.324 43.2056 52.2774C45.2972 48.3663 48.3667 45.2968 52.2779 43.205L52.697 42.9847L53.118 42.7719L53.5425 42.5665L53.9723 42.3688L54.2628 42.2412L54.7057 42.0562L55.0065 41.9372L55.3127 41.8216L55.6245 41.7094L55.9427 41.6007L56.4327 41.4442L56.7689 41.3441C56.8257 41.3277 56.8827 41.3115 56.9402 41.2955L57.2888 41.2007L57.6466 41.1094C57.7071 41.0944 57.7679 41.0797 57.8291 41.065L58.2014 40.9791L58.5844 40.8966C58.649 40.8832 58.7143 40.8697 58.7799 40.8566L59.1794 40.7795L59.5908 40.7061L60.0146 40.6359C60.0863 40.6247 60.1584 40.6135 60.2312 40.6024L60.6746 40.5377L61.1317 40.4767L61.6032 40.4193L62.0894 40.3655L62.5913 40.3154L63.109 40.2688L63.6433 40.2261L64.1948 40.1869L64.7638 40.1515C64.8602 40.1459 64.9572 40.1404 65.0552 40.1351L65.957 40.0916L66.5824 40.0671L67.2275 40.0465L67.8933 40.0295L68.5798 40.0164L69.288 40.007L70.3918 40H99.608L100.341 40.0036L101.399 40.0161L102.078 40.0289L102.737 40.0455L103.376 40.0656L103.995 40.0896L104.596 40.117L105.177 40.148L105.742 40.1828L106.288 40.221L106.819 40.2628L107.332 40.3083L107.831 40.3573L108.314 40.4098L108.782 40.4659L109.237 40.5255L109.677 40.5885L110.105 40.6552L110.521 40.7253L110.924 40.7989C110.99 40.8114 111.056 40.8242 111.121 40.8371L111.508 40.9158L111.883 40.9982L112.249 41.0839C112.309 41.0984 112.369 41.1133 112.428 41.1281L112.78 41.219L113.123 41.3133L113.458 41.4111L113.946 41.564L114.262 41.6703L114.726 41.8359L115.028 41.9505L115.325 42.0684L115.617 42.1899L115.905 42.3146L116.191 42.4424L116.613 42.6406L116.892 42.7768L117.308 42.9873L117.722 43.205C121.633 45.2968 124.703 48.3663 126.794 52.2774L127.012 52.6917L127.223 53.1076L127.359 53.3866L127.557 53.8091L127.748 54.2379L127.871 54.5284L128.049 54.9719L128.164 55.2738L128.275 55.5811L128.436 56.0537L128.588 56.5416L128.686 56.8763L128.781 57.2193L128.871 57.571L128.959 57.9319C128.973 57.993 128.987 58.0542 129.001 58.1161L129.084 58.4919L129.162 58.8784L129.238 59.276C129.25 59.3432 129.262 59.4109 129.274 59.479L129.344 59.8943L129.411 60.3221L129.474 60.7629L129.534 61.2172L129.59 61.6857L129.642 62.1688L129.691 62.6669L129.736 63.1809L129.779 63.7111L129.817 64.2579L129.851 64.822L129.882 65.4041L129.922 66.3118L129.944 66.9406L129.962 67.5893L129.977 68.2581L129.988 68.9479L129.996 69.6589L130 70.7662V121C130 125.971 125.971 130 121 130C116.029 130 112 125.971 112 121V112C112 107.029 107.97 103 103 103H85C80.0294 103 76 98.9702 76 93.9998C76 89.0293 80.0294 85 85 85H103C107.97 85 112 80.9701 112 75.9997V70C112 63.4412 106.739 58.1117 100.207 58.0013L100 57.9995H69.9999C63.4416 57.9995 58.112 63.2609 58.0017 69.7928L58 70V121Z" fill="white"></path></svg> 